<svg xmlns="http://www.w3.org/2000/svg" version="1.1" viewBox="0 0 64 64">
  <circle cx="32" cy="32" r="32" fill="#fff" stroke-width="0"/>
  <polygon points="11.2 45.7 4.2 29.9 14.9 26.7 15.5 28.8 7.3 31.3 13.2 44.8 11.2 45.7" fill="#000" stroke-width="0"/>
  <polygon points="42.5 40.7 40.3 40.2 44.9 16.2 41.5 16.2 41 20.2 34.2 20.2 33.5 16.2 30.5 16.2 29.9 20.2 23 20.2 22.5 16.2 19.1 16.2 23.6 40.2 21.5 40.7 16.5 14.1 24.5 14.1 24.9 18 28 18 28.6 14.1 35.4 14.1 36 18 39.1 18 39.5 14.1 47.5 14.1 42.5 40.7" fill="#000" stroke-width="0"/>
  <polygon points="52.8 45.7 50.8 44.8 56.7 31.3 48.5 28.8 49.2 26.7 59.8 29.9 52.8 45.7" fill="#000" stroke-width="0"/>
</svg>
